<svg id="Group_1" data-name="Group 1" xmlns="http://www.w3.org/2000/svg" width="100" height="400" viewBox="0 0 400 400">
  <rect id="Rectangle_170" data-name="Rectangle 170" width="400" height="400" fill="#003865"/>
  <g id="logo" transform="translate(-65.481 -2257.363)">
    <path id="Path_2" data-name="Path 2" d="M49.978,103.1h5.049l-.09-5.411c0-.271.09-.541-.09-.541s-.361.27-.541.541Zm2.074-8.116A4.574,4.574,0,0,1,56.2,93c1.533,0,2.525.361,2.615,1.984l.451,15.331H54.847v-3.878H47.634l-3.066,3.878H39.7Z" transform="translate(124.094 2397.868)" fill="#fff"/>
    <path id="Path_3" data-name="Path 3" d="M83.083,107.79a4.023,4.023,0,0,1-4.147,2.705c-1.172,0-2.344-.18-2.7-1.533l-2.525-10.1c-.09-.271-.18-.451-.361-.451-.09,0-.271.09-.451.451l-4.328,11.453H64.6l5.68-14.609A4.225,4.225,0,0,1,74.608,93c1.262,0,2.254.361,2.615,1.443l2.525,10.19c0,.18.09.451.271.451.27,0,.361-.271.451-.451L84.8,93.18h3.967Z" transform="translate(121.645 2397.868)" fill="#fff"/>
    <path id="Path_4" data-name="Path 4" d="M97.578,103.1h5.049l-.09-5.411c0-.271.09-.541-.09-.541s-.361.27-.541.541Zm2.074-8.116A4.574,4.574,0,0,1,103.8,93c1.533,0,2.525.361,2.615,1.984l.451,15.331h-4.418v-3.878H95.234l-3.066,3.878H87.3Z" transform="translate(119.411 2397.868)" fill="#fff"/>
    <path id="Path_5" data-name="Path 5" d="M114.8,110.334c-1.352,0-1.984-.721-1.8-1.894a2.789,2.789,0,0,1,.18-.721l5.68-14.519h4.418l-4.869,12.535a.98.98,0,0,0-.09.451c-.09.541.18.721.811.721h8.836l-1.352,3.427Z" transform="translate(116.886 2397.847)" fill="#fff"/>
    <path id="Path_6" data-name="Path 6" d="M147.455,93.2h4.959l-12.082,12.084-1.984,5.05h-4.328l1.893-5.05L133.3,93.2h4.508l1.623,8.206Z" transform="translate(114.886 2397.847)" fill="#fff"/>
    <path id="Path_7" data-name="Path 7" d="M156.782,110.334l5.32-13.707h-6.4l1.353-3.427h17.131l-1.352,3.427h-6.311l-5.41,13.707Z" transform="translate(112.682 2397.847)" fill="#fff"/>
    <path id="Path_8" data-name="Path 8" d="M172.6,110.334,179.272,93.2h4.418l-6.672,17.134Z" transform="translate(111.019 2397.847)" fill="#fff"/>
    <path id="Path_9" data-name="Path 9" d="M190.3,110.324c-4.6,0-5.951-2.345-5.32-5.952a17.046,17.046,0,0,1,.9-3.156c2.074-5.411,4.6-8.116,10.549-8.116h7.123L202.2,96.527h-4.869c-3.877,0-5.41.992-7.033,5.14a12.974,12.974,0,0,0-.721,2.345c-.361,2.164.721,2.8,3.787,2.8h5.139l-1.352,3.427H190.3Z" transform="translate(109.815 2397.859)" fill="#fff"/>
    <path id="Path_10" data-name="Path 10" d="M203.743,106.907h9.467a1.7,1.7,0,0,0,1.8-1.533c.09-.451-.09-.812-.9-1.082l-5.68-1.984c-1.533-.541-1.984-1.713-1.713-3.427a10.894,10.894,0,0,1,.451-1.623c.9-2.615,2.525-4.058,5.59-4.058h10.549l-1.352,3.427h-8.836a1.606,1.606,0,0,0-1.713,1.443c-.09.451.18.9.9,1.082l5.139,1.8c1.8.631,2.615,1.623,2.254,3.607a5.246,5.246,0,0,1-.451,1.443c-.992,2.705-2.434,4.329-5.59,4.329H202.3Z" transform="translate(108.097 2397.847)" fill="#fff"/>
    <path id="Path_11" data-name="Path 11" d="M80.6,28.326h21.639c4.869,0,7.664-1.894,9.828-7.395a21.937,21.937,0,0,0,.811-2.705c.541-3.066-.992-4.509-5.049-4.509H90.785c-3.516,0-4.869.992-6.221,4.509ZM71.58,51.593a13.521,13.521,0,0,0-.721,2.435c-.361,1.984.721,2.615,3.787,2.615h16.77c5.41,0,8.565-2.074,10.639-7.665a17.081,17.081,0,0,0,.9-2.886c.631-3.427-1.172-4.689-5.229-4.689H75.548Zm49.769-5.411a25.454,25.454,0,0,1-1.623,5.591c-4.688,11.9-10.008,18.487-25.245,18.487H56.794c-5.5,0-8.115-2.976-7.213-7.846a20.084,20.084,0,0,1,.811-2.886L69.326,10.922C72.3,3.437,76.629.1,84.2.1h34.712c9.918,0,14.516,5.681,12.893,15.15a41.8,41.8,0,0,1-1.352,5.321c-2.344,7.214-6.492,12.445-15.688,13.707l-.18.361c5.77.992,7.844,5.411,6.762,11.543" transform="translate(123.139 2406.99)" fill="#fff"/>
    <path id="Path_12" data-name="Path 12" d="M155.2,52.117c-1.082,6.042,1.533,8.928,9.467,8.928,10.549,0,15.057-4.148,19.2-14.609a57.352,57.352,0,0,0,2.164-7.756c1.082-6.042-1.262-8.928-9.287-8.928-10.549,0-15.237,4.148-19.295,14.609a56.893,56.893,0,0,0-2.254,7.756M202.175,38.5a48.874,48.874,0,0,1-2.344,8.928c-7.934,21.733-18.032,25.16-38.589,25.16-16.95,0-24.7-5.14-22-20.02a54.73,54.73,0,0,1,2.525-9.108C149.611,21.817,159.8,18.3,180.356,18.3c16.95-.09,24.434,5.14,21.819,20.2" transform="translate(114.353 2405.203)" fill="#fff"/>
    <path id="Path_13" data-name="Path 13" d="M237.419,0h15.6L225.7,70.16H210.1Z" transform="translate(107.33 2407)" fill="#fff"/>
    <path id="Path_14" data-name="Path 14" d="M269.331,70.16c-9.106,0-15.688-4.148-14.155-13.166a38.907,38.907,0,0,1,1.262-4.509l9.377-23.9h-7.393l4.418-11.543h7.393L276.9,0h15.6l-6.582,17.044h15.057L296.56,28.587H281.5L274.38,46.8a35.778,35.778,0,0,0-1.262,4.238c-.9,5.321,1.894,7.665,8.746,7.665h2.885L280.241,70.25h-10.91Z" transform="translate(102.917 2407)" fill="#fff"/>
    <path id="Path_15" data-name="Path 15" d="M51.663,18.5l4.328-11H9.377A5.532,5.532,0,0,0,4.6,10.3L0,18.5H51.663Z" transform="translate(128 2406.263)" fill="#e04e39"/>
    <path id="Path_16" data-name="Path 16" d="M49.978,26.4h-34.8a3.941,3.941,0,0,0-3.426,1.984L6.7,37.4H45.65Z" transform="translate(127.341 2404.408)" fill="#e04e39"/>
    <path id="Path_17" data-name="Path 17" d="M44.24,45.2H25.487a5.164,5.164,0,0,0-4.6,2.705L16.2,56.2H39.913Z" transform="translate(126.406 2402.562)" fill="#e04e39"/>
  </g>
</svg>
